<?xml version="1.0" encoding="UTF-8"?>
<svg width="96px" height="119px" viewBox="0 0 96 119" version="1.1" xmlns="http://www.w3.org/2000/svg" xmlns:xlink="http://www.w3.org/1999/xlink">
    <!-- Generator: Sketch 52.6 (67491) - http://www.bohemiancoding.com/sketch -->
    <title>Group 11</title>
    <desc>Created with Sketch.</desc>
    <g id="Symbols" stroke="none" stroke-width="1" fill="none" fill-rule="evenodd">
        <g id="Module-/-Desktop-/-Value-/-01" transform="translate(-1254.000000, -178.000000)">
            <g id="Strength-Copy-3">
                <g transform="translate(1147.000000, 178.000000)">
                    <g id="Group-11" transform="translate(107.000000, 0.000000)">
                        <polygon id="Fill-1" fill="#FFCD00" points="72.3476571 73.9359429 83.8882286 81.8679429 48.2945143 103.893086 12.5859429 81.7890857 24.8019429 73.9359429 48.2945143 89.6576571"></polygon>
                        <polygon id="Fill-2" fill="#FFCD00" points="79.4994857 49.6949143 48.2463429 69.0526286 24.2549143 54.2034857 16.9743429 49.6949143 24.7572 44.8829143 48.2463429 59.4097714 71.7166286 44.8829143"></polygon>
                        <g id="Group-9" transform="translate(0.000000, 0.532800)" stroke="#758592" stroke-linecap="round" stroke-linejoin="round" stroke-width="1.5">
                            <polygon id="Stroke-3" points="24.7570286 44.3499429 24.2564571 44.0465143 1.28674286 29.8230857 48.2461714 0.752228571 95.1884571 29.8230857 71.7181714 44.3499429 48.2461714 58.8768"></polygon>
                            <polyline id="Stroke-5" points="71.7174857 44.3499429 79.5003429 49.1619429 95.1877714 58.8768 71.7174857 73.4036571 48.2472 87.9476571 24.7563429 73.4036571 1.28605714 58.8768 16.9752 49.1619429 24.7563429 44.3499429"></polyline>
                            <polyline id="Stroke-7" points="71.7174857 73.4031429 79.5003429 78.2322857 95.1877714 87.9471429 48.2472 117.000857 1.28605714 87.9471429 16.9752 78.2151429 24.7563429 73.4031429"></polyline>
                        </g>
                        <polygon id="Fill-10" fill="#FFCD00" points="48.2372571 16.1482286 51.1978286 25.2579429 60.7755429 25.2579429 53.0269714 30.8893714 55.9875429 39.9990857 48.2372571 34.3676571 40.4869714 39.9990857 43.4475429 30.8893714 35.6989714 25.2579429 45.2766857 25.2579429"></polygon>
                    </g>
                </g>
            </g>
        </g>
    </g>
</svg>