<?xml version="1.0" encoding="UTF-8"?>
<svg width="63px" height="119px" viewBox="0 0 63 119" version="1.1" xmlns="http://www.w3.org/2000/svg" xmlns:xlink="http://www.w3.org/1999/xlink">
    <!-- Generator: Sketch 52.6 (67491) - http://www.bohemiancoding.com/sketch -->
    <title>Group 25</title>
    <desc>Created with Sketch.</desc>
    <defs>
        <polygon id="path-1" points="0 118.921739 63.2869565 118.921739 63.2869565 0 0 0"></polygon>
    </defs>
    <g id="Symbols" stroke="none" stroke-width="1" fill="none" fill-rule="evenodd">
        <g id="Module-/-Desktop-/-Value-/-01" transform="translate(-937.000000, -178.000000)">
            <g id="Strength-Copy-2">
                <g transform="translate(817.000000, 178.000000)">
                    <g id="Group-25" transform="translate(120.000000, 0.000000)">
                        <path d="M54.3128696,94.5394783 C53.5302609,94.7481739 52.7128696,94.8525217 51.8606957,94.8525217 L47.5476522,94.8525217 L11.4085217,94.8525217 L35.6972174,98.6907826 C39.7337391,99.3273043 42.505913,102.883826 42.4867826,106.969043 L42.4867826,107.043826 L42.4867826,117.548174 L42.4867826,117.617739 L46.8172174,117.617739 C48.2102609,117.617739 49.3389565,116.489043 49.3389565,115.096 L49.3389565,107.043826 C49.3389565,104.974261 49.7563478,102.939478 50.5563478,101.078609 C50.9215652,100.226435 51.3563478,99.4090435 51.878087,98.6264348 L54.3998261,94.8525217 L54.3128696,94.5394783 Z" id="Fill-1" fill="#FFCD00"></path>
                        <path d="M54.3128696,24.3822609 C53.5302609,24.1735652 52.7128696,24.0692174 51.8606957,24.0692174 L47.5476522,24.0692174 L11.4085217,24.0692174 L35.6972174,20.2309565 C39.7337391,19.5944348 42.505913,16.037913 42.4867826,11.9526957 L42.4867826,11.877913 L42.4867826,1.37356522 L42.4867826,1.304 L46.8172174,1.304 C48.2102609,1.304 49.3389565,2.43269565 49.3389565,3.82573913 L49.3389565,11.877913 C49.3389565,13.9474783 49.7563478,15.9822609 50.5563478,17.8431304 C50.9215652,18.6953043 51.3563478,19.5126957 51.878087,20.2953043 L54.3998261,24.0692174 L54.3128696,24.3822609 Z" id="Fill-3" fill="#FFCD00"></path>
                        <path d="M32.7827826,65.8956522 C49.721913,48.4695652 40.5914783,38.0695652 31.6349565,41.2869565 L33.7914783,39.1304348 C37.3393043,35.5826087 43.1132174,35.5826087 46.6784348,39.1304348 C50.2262609,42.6956522 50.2262609,48.4521739 46.6784348,52.0173913 L32.7827826,65.8956522 Z" id="Fill-5" fill="#FFCD00"></path>
                        <path d="M54.3996522,94.852 L51.877913,98.625913 C51.3561739,99.4085217 50.9213913,100.225913 50.5561739,101.078087 C49.7561739,102.938957 49.3387826,104.973739 49.3387826,107.043304 L49.3387826,115.095478 C49.3387826,116.486783 48.2083478,117.617217 46.8170435,117.617217 L42.4866087,117.617217 L16.4692174,117.617217 C15.077913,117.617217 13.9474783,116.486783 13.9474783,115.095478 L13.9474783,107.043304 C13.9474783,104.034609 13.0605217,101.11287 11.3909565,98.625913 L8.8866087,94.852" id="Stroke-7" stroke="#758592" stroke-width="1.5" stroke-linecap="round" stroke-linejoin="round"></path>
                        <path d="M54.3128696,24.3822609 C58.7302609,25.4605217 61.9824348,29.4431304 61.9824348,34.1735652 L61.9824348,84.7474783 C61.9824348,89.477913 58.7302609,93.4605217 54.3128696,94.5387826 C53.5302609,94.7474783 52.7128696,94.8518261 51.8606957,94.8518261 L47.5476522,94.8518261 L11.4085217,94.8518261 C10.5563478,94.8518261 9.73895652,94.7474783 8.95634783,94.5387826 C4.55634783,93.4605217 1.30417391,89.477913 1.30417391,84.7474783 L1.30417391,34.1735652 C1.30417391,29.4431304 4.55634783,25.4605217 8.95634783,24.3822609 C9.73895652,24.1735652 10.5563478,24.0692174 11.4085217,24.0692174 L46.625913,24.0692174 L51.8606957,24.0692174 C52.7128696,24.0692174 53.5302609,24.1735652 54.3128696,24.3822609 Z" id="Stroke-9" stroke="#758592" stroke-width="1.5" stroke-linecap="round" stroke-linejoin="round"></path>
                        <path d="M54.3996522,24.069913 L51.877913,20.296 C50.2257391,17.8090435 49.3387826,14.8873043 49.3387826,11.896 L49.3387826,3.84382609 C49.3387826,2.43513043 48.2083478,1.30469565 46.8170435,1.30469565 L41.5648696,1.30469565 L16.4692174,1.30469565 C15.077913,1.30469565 13.9474783,2.43513043 13.9474783,3.84382609 L13.9474783,11.896 C13.9474783,14.8873043 13.0605217,17.8090435 11.3909565,20.296 L8.8866087,24.069913" id="Stroke-11" stroke="#758592" stroke-width="1.5" stroke-linecap="round" stroke-linejoin="round"></path>
                        <path d="M32.7827826,65.8956522 L46.6784348,52.0173913 C50.2262609,48.4521739 50.2262609,42.6956522 46.6784348,39.1304348 C43.1132174,35.5826087 37.3393043,35.5826087 33.7914783,39.1304348 L31.6349565,41.2869565 L29.4958261,39.1304348 C25.9306087,35.5826087 20.174087,35.5826087 16.6088696,39.1304348 C13.0436522,42.6956522 13.0436522,48.4521739 16.6088696,52.0173913 L31.6349565,67.0434783" id="Stroke-13" stroke="#758592" stroke-width="1.5" stroke-linecap="round" stroke-linejoin="round"></path>
                        <path d="M23.0612174,41.6886957 C22.0594783,41.6886957 21.0542609,42.0678261 20.2890435,42.8278261 C18.7794783,44.3373913 18.7794783,46.8086957 20.2977391,48.3286957 L22.1986087,50.2295652" id="Stroke-15" stroke="#758592" stroke-width="1.5" stroke-linecap="round" stroke-linejoin="round"></path>
                        <path d="M31.6346087,67.0436522 L32.1563478,66.5393043" id="Stroke-17" stroke="#758592" stroke-width="1.5" stroke-linecap="round" stroke-linejoin="round"></path>
                        <path d="M36.6958261,82.2262609 L51.8610435,82.2262609" id="Stroke-19" stroke="#758592" stroke-width="1.5" stroke-linecap="round" stroke-linejoin="round"></path>
                        <path d="M36.6958261,74.626087 L51.8610435,74.626087" id="Stroke-21" stroke="#758592" stroke-width="1.5" stroke-linecap="round" stroke-linejoin="round"></path>
                        <mask id="mask-2" fill="white">
                            <use xlink:href="#path-1"></use>
                        </mask>
                        <g id="Clip-24"></g>
                        <polygon id="Fill-23" fill="#FFCD00" mask="url(#mask-2)" points="9.79130435 83.7808696 24.9565217 83.7808696 24.9565217 73.3756522 9.79130435 73.3756522"></polygon>
                    </g>
                </g>
            </g>
        </g>
    </g>
</svg>