<?xml version="1.0" encoding="UTF-8"?>
<svg width="87px" height="120px" viewBox="0 0 87 120" version="1.1" xmlns="http://www.w3.org/2000/svg" xmlns:xlink="http://www.w3.org/1999/xlink">
    <!-- Generator: Sketch 52.6 (67491) - http://www.bohemiancoding.com/sketch -->
    <title>Group 31</title>
    <desc>Created with Sketch.</desc>
    <g id="Symbols" stroke="none" stroke-width="1" fill="none" fill-rule="evenodd">
        <g id="Module-/-Desktop-/-Value-/-01" transform="translate(-265.000000, -179.000000)">
            <g id="Strength">
                <g transform="translate(160.000000, 179.000000)">
                    <g id="Group-31" transform="translate(105.000000, 0.000000)">
                        <path d="M54.8064,37.4089714 L54.6126857,37.7346857 C49.5144,46.3575429 41.2258286,52.6266857 31.5418286,55.1878286 L32.7006857,56.6569714 L52.8521143,56.6569714 L54.8064,37.4089714 Z" id="Fill-1" fill="#FFCD00"></path>
                        <polyline id="Fill-3" fill="#FFCD00" points="52.8519429 59.1774857 42.5148 59.1774857 31.8348 59.1774857"></polyline>
                        <polygon id="Fill-5" fill="#FFCD00" points="65.9283429 15.7016571 76.2294857 17.8548 75.6260571 21.7068 65.4089143 19.5502286"></polygon>
                        <polygon id="Fill-7" fill="#FFCD00" points="53.0921143 57.1316571 53.0921143 88.0282286 52.8521143 88.0282286 42.5149714 88.0282286 42.5149714 57.3493714 42.5149714 57.1316571 52.8521143 57.1316571"></polygon>
                        <path d="M53.0921143,118.885371 L42.5149714,118.885371 C42.5149714,115.953943 44.8806857,113.588229 47.7949714,113.588229 C50.7264,113.588229 53.0921143,115.953943 53.0921143,118.885371" id="Fill-9" fill="#FFCD00"></path>
                        <path d="M42.4632,118.885371 L31.8860571,118.885371 C31.8860571,115.953943 34.2517714,113.588229 37.1660571,113.588229 C40.0974857,113.588229 42.4632,115.953943 42.4632,118.885371" id="Fill-11" fill="#FFCD00"></path>
                        <polygon id="Fill-13" fill="#FFCD00" points="42.5151429 57.3493714 42.5151429 88.0282286 31.8351429 88.0282286 31.8351429 57.1316571 42.5151429 57.1316571"></polygon>
                        <path d="M49.9356,8.70651429 C49.9356,12.7985143 46.6064571,16.1088 42.5144571,16.1088 C38.4241714,16.1088 35.0933143,12.7985143 35.0933143,8.70651429 C35.0933143,4.59737143 38.4241714,1.28537143 42.5144571,1.28537143 C46.6064571,1.28537143 49.9356,4.59737143 49.9356,8.70651429 Z" id="Stroke-15" stroke="#758592" stroke-width="1.5" stroke-linecap="round" stroke-linejoin="round"></path>
                        <polyline id="Stroke-17" stroke="#758592" stroke-width="1.5" stroke-linecap="round" stroke-linejoin="round" points="42.5151429 56.6571429 42.5151429 81.1028571 42.5151429 118.885714"></polyline>
                        <polyline id="Stroke-19" stroke="#758592" stroke-width="1.5" stroke-linecap="round" stroke-linejoin="round" points="30.1208571 35.8755429 31.8351429 59.1778286 31.8351429 81.1035429 31.8351429 118.884686 53.0922857 118.884686 53.0922857 81.1035429 53.0922857 59.1778286 53.0922857 56.6578286"></polyline>
                        <polyline id="Stroke-21" stroke="#758592" stroke-width="1.5" stroke-linecap="round" stroke-linejoin="round" points="31.8351429 56.6571429 53.0922857 56.6571429 54.8065714 35.6948571"></polyline>
                        <path d="M30.1208571,35.6946857 L14.5208571,37.4089714 C12.7997143,37.4089714 11.3357143,36.1558286 11.0682857,34.4552571 L7.85228571,13.9386857 C7.49228571,11.5078286 8.68542857,9.01697143 10.9311429,8.01754286 C11.4265714,7.79811429 11.8517143,7.69354286 12.3231429,7.62325714 C15.2237143,7.19468571 17.9305714,9.20211429 18.3625714,12.1181143 L20.0922857,24.9598286 L26.1351429,23.7306857 C31.5094286,22.6386857 36.9797143,22.0884 42.4637143,22.0884 C47.9477143,22.0884 53.418,22.6386857 58.7922857,23.7306857 L64.8351429,24.9598286 L66.5648571,12.1181143 C66.9968571,9.20211429 69.7037143,7.19468571 72.6025714,7.62325714 C73.0757143,7.69354286 73.5008571,7.79811429 73.9962857,8.01754286 C76.242,9.01697143 77.4351429,11.5078286 77.0751429,13.9386857 L73.8591429,34.4552571 C73.5917143,36.1558286 72.126,37.4089714 70.4048571,37.4089714 L54.8065714,35.6946857" id="Stroke-23" stroke="#758592" stroke-width="1.5" stroke-linecap="round" stroke-linejoin="round"></path>
                        <path d="M42.5151429,118.885371 L42.3951429,118.885371" id="Stroke-25" stroke="#758592" stroke-width="1.5" stroke-linecap="round" stroke-linejoin="round"></path>
                        <path d="M69.8574857,49.6366286 C78.5763429,49.6366286 85.6443429,42.5686286 85.6443429,33.8497714" id="Stroke-27" stroke="#FFCD00" stroke-width="1.5" stroke-linecap="round" stroke-linejoin="round"></path>
                        <path d="M17.0729143,49.6366286 C8.35405714,49.6366286 1.28605714,42.5686286 1.28605714,33.8497714" id="Stroke-29" stroke="#FFCD00" stroke-width="1.5" stroke-linecap="round" stroke-linejoin="round"></path>
                    </g>
                </g>
            </g>
        </g>
    </g>
</svg>